<svg width="247" height="16" viewBox="0 0 247 16" fill="none" xmlns="http://www.w3.org/2000/svg">
<path d="M7.96533 1.66697C7.30209 1.66 6.64413 1.78561 6.03009 2.03642C5.41606 2.28722 4.85831 2.65817 4.3896 3.12749C3.92089 3.5968 3.55066 4.15502 3.30065 4.76938C3.05064 5.38375 2.92588 6.04186 2.9337 6.7051C2.9337 11.4835 7.53034 14.1584 7.72511 14.2753C7.79944 14.3134 7.88179 14.3334 7.96533 14.3334C8.04888 14.3334 8.13123 14.3134 8.20555 14.2753C8.40033 14.1584 12.997 11.4835 12.997 6.7051C13.0049 6.04184 12.8802 5.38368 12.6302 4.76928C12.3802 4.15488 12.01 3.59662 11.5413 3.12729C11.0725 2.65796 10.5148 2.28701 9.90068 2.03624C9.2866 1.78546 8.62861 1.65992 7.96533 1.66697ZM7.96533 8.65283C7.44868 8.65283 6.95318 8.44759 6.58785 8.08226C6.22252 7.71693 6.01728 7.22143 6.01728 6.70478C6.01728 6.18812 6.22252 5.69262 6.58785 5.32729C6.95318 4.96196 7.44868 4.75672 7.96533 4.75672C8.48199 4.75672 8.97749 4.96196 9.34282 5.32729C9.70815 5.69262 9.91339 6.18812 9.91339 6.70478C9.91339 7.22143 9.70815 7.71693 9.34282 8.08226C8.97749 8.44759 8.48199 8.65283 7.96533 8.65283Z" fill="#00AA5B"/>
<path d="M20.869 12V3.607H23.179C24.5723 3.607 25.6393 3.97367 26.38 4.707C27.1207 5.44033 27.491 6.48167 27.491 7.831C27.491 9.15833 27.117 10.185 26.369 10.911C25.6283 11.637 24.5613 12 23.168 12H20.869ZM23.157 11.087C24.169 11.087 24.9757 10.8487 25.577 10.372C26.1783 9.89533 26.479 9.04833 26.479 7.831C26.479 5.62367 25.3753 4.52 23.168 4.52H21.881V11.087H23.157ZM29.7726 12H28.8376V5.917H29.7726V12ZM29.3106 4.872C29.1126 4.872 28.944 4.806 28.8046 4.674C28.6653 4.53467 28.5956 4.36967 28.5956 4.179C28.5956 3.98833 28.6653 3.827 28.8046 3.695C28.944 3.563 29.1126 3.497 29.3106 3.497C29.5086 3.497 29.6773 3.563 29.8166 3.695C29.956 3.827 30.0256 3.98833 30.0256 4.179C30.0256 4.36967 29.956 4.53467 29.8166 4.674C29.6773 4.806 29.5086 4.872 29.3106 4.872ZM32.2758 12H31.3408V3.607H32.2758V8.348L34.9488 5.917H36.2468L33.2658 8.59L36.5218 12H35.2458L32.2758 8.821V12ZM38.3556 12H37.4206V5.917H38.3556V12ZM37.8936 4.872C37.6956 4.872 37.527 4.806 37.3876 4.674C37.2483 4.53467 37.1786 4.36967 37.1786 4.179C37.1786 3.98833 37.2483 3.827 37.3876 3.695C37.527 3.563 37.6956 3.497 37.8936 3.497C38.0916 3.497 38.2603 3.563 38.3996 3.695C38.539 3.827 38.6086 3.98833 38.6086 4.179C38.6086 4.36967 38.539 4.53467 38.3996 4.674C38.2603 4.806 38.0916 4.872 37.8936 4.872ZM39.9128 12V5.917H40.8478V6.753C41.1265 6.41567 41.4235 6.17367 41.7388 6.027C42.0542 5.88033 42.4208 5.807 42.8388 5.807H42.8828V6.742H42.5638C42.0725 6.742 41.6802 6.88867 41.3868 7.182C41.0275 7.52667 40.8478 8.06567 40.8478 8.799V12H39.9128ZM44.8439 12H43.9089V5.917H44.8439V12ZM44.3819 4.872C44.1839 4.872 44.0153 4.806 43.8759 4.674C43.7366 4.53467 43.6669 4.36967 43.6669 4.179C43.6669 3.98833 43.7366 3.827 43.8759 3.695C44.0153 3.563 44.1839 3.497 44.3819 3.497C44.5799 3.497 44.7486 3.563 44.8879 3.695C45.0273 3.827 45.0969 3.98833 45.0969 4.179C45.0969 4.36967 45.0273 4.53467 44.8879 4.674C44.7486 4.806 44.5799 4.872 44.3819 4.872ZM46.4011 12V5.917H47.3361V6.863C47.6368 6.47433 47.9265 6.203 48.2051 6.049C48.4911 5.88767 48.8028 5.807 49.1401 5.807C49.5508 5.807 49.9101 5.90233 50.2181 6.093C50.5335 6.28367 50.7351 6.56233 50.8231 6.929C51.2045 6.181 51.8461 5.807 52.7481 5.807C53.4228 5.807 53.9288 6.00133 54.2661 6.39C54.6035 6.77133 54.7721 7.32133 54.7721 8.04V12H53.8371V8.26C53.8371 7.73933 53.7271 7.33967 53.5071 7.061C53.2945 6.775 52.9938 6.632 52.6051 6.632C52.2018 6.632 51.8718 6.76767 51.6151 7.039C51.4098 7.259 51.2631 7.545 51.1751 7.897C51.0945 8.249 51.0541 8.7 51.0541 9.25V12H50.1191V8.26C50.1191 7.74667 50.0055 7.347 49.7781 7.061C49.5581 6.775 49.2575 6.632 48.8761 6.632C48.4728 6.632 48.1428 6.77867 47.8861 7.072C47.6955 7.28467 47.5561 7.55967 47.4681 7.897C47.3801 8.23433 47.3361 8.68533 47.3361 9.25V12H46.4011ZM60.3237 12H59.3887V3.607H60.3237V8.348L62.9967 5.917H64.2947L61.3137 8.59L64.5697 12H63.2937L60.3237 8.821V12ZM67.82 12.11C67.248 12.11 66.7347 11.9743 66.28 11.703C65.8327 11.4317 65.4843 11.0577 65.235 10.581C64.9857 10.1043 64.861 9.569 64.861 8.975C64.861 8.41033 64.9783 7.88967 65.213 7.413C65.4477 6.929 65.785 6.54033 66.225 6.247C66.6723 5.95367 67.1967 5.807 67.798 5.807C68.3187 5.807 68.8027 5.92433 69.25 6.159C69.6973 6.39367 70.0567 6.73833 70.328 7.193C70.5993 7.64033 70.735 8.17933 70.735 8.81V9.14H65.785C65.7997 9.35267 65.84 9.55433 65.906 9.745C66.06 10.2143 66.3057 10.5883 66.643 10.867C66.9877 11.1457 67.3763 11.285 67.809 11.285C68.249 11.285 68.6267 11.1677 68.942 10.933C69.2573 10.6983 69.4847 10.4013 69.624 10.042H70.625C70.427 10.658 70.0897 11.1567 69.613 11.538C69.1363 11.9193 68.5387 12.11 67.82 12.11ZM69.734 8.315C69.7193 8.095 69.6753 7.897 69.602 7.721C69.448 7.37633 69.2097 7.10867 68.887 6.918C68.5717 6.72733 68.216 6.632 67.82 6.632C67.4167 6.632 67.061 6.72733 66.753 6.918C66.4523 7.10867 66.2177 7.37633 66.049 7.721C65.9757 7.88233 65.917 8.08033 65.873 8.315H69.734ZM81.55 12H79.867L78.536 8.645H76.666V12H75.082V3.607H78.701C79.5223 3.607 80.1713 3.81233 80.648 4.223C81.1247 4.62633 81.363 5.246 81.363 6.082C81.363 6.62467 81.2457 7.09033 81.011 7.479C80.7837 7.86767 80.461 8.161 80.043 8.359L81.55 12ZM76.666 5.026V7.259H78.481C78.9063 7.259 79.229 7.16367 79.449 6.973C79.6763 6.78233 79.79 6.50367 79.79 6.137C79.79 5.77767 79.6763 5.50267 79.449 5.312C79.2217 5.12133 78.899 5.026 78.481 5.026H76.666ZM84.745 12.121C83.7916 12.121 83.15 11.78 82.82 11.098C82.7173 10.8927 82.6476 10.669 82.611 10.427C82.5743 10.1777 82.556 9.82933 82.556 9.382V5.829H84.041V9.393C84.041 9.70833 84.063 9.965 84.107 10.163C84.1583 10.3537 84.2353 10.5077 84.338 10.625C84.514 10.8083 84.7743 10.9 85.119 10.9C85.5443 10.9 85.8596 10.7753 86.065 10.526C86.1896 10.3793 86.2776 10.185 86.329 9.943C86.3876 9.701 86.417 9.37467 86.417 8.964V5.829H87.902V12H86.417V11.219C86.1896 11.5343 85.944 11.7653 85.68 11.912C85.4233 12.0513 85.1116 12.121 84.745 12.121ZM89.2599 12V5.829H90.7449V6.61C90.9795 6.28733 91.2325 6.05633 91.5039 5.917C91.7825 5.77033 92.0905 5.697 92.4279 5.697C92.8385 5.697 93.1869 5.78133 93.4729 5.95C93.7589 6.11867 93.9495 6.36433 94.0449 6.687C94.2429 6.34233 94.4922 6.093 94.7929 5.939C95.0935 5.77767 95.4492 5.697 95.8599 5.697C96.5345 5.697 97.0405 5.895 97.3779 6.291C97.7152 6.687 97.8839 7.24067 97.8839 7.952V12H96.3989V8.139C96.3989 7.325 96.0762 6.918 95.4309 6.918C95.1229 6.918 94.8772 7.017 94.6939 7.215C94.5545 7.369 94.4555 7.567 94.3969 7.809C94.3455 8.051 94.3199 8.359 94.3199 8.733V12H92.8349V8.139C92.8349 7.72833 92.7505 7.424 92.5819 7.226C92.4132 7.02067 92.1712 6.918 91.8559 6.918C91.5479 6.918 91.2985 7.02433 91.1079 7.237C90.9832 7.38367 90.8915 7.57433 90.8329 7.809C90.7742 8.03633 90.7449 8.34433 90.7449 8.733V12H89.2599ZM100.978 12.121C100.377 12.121 99.8894 11.9633 99.5154 11.648C99.1414 11.3253 98.9544 10.878 98.9544 10.306C98.9544 9.69 99.1891 9.22067 99.6584 8.898C99.9957 8.66333 100.476 8.48733 101.099 8.37L102.936 8.029C102.922 7.64767 102.823 7.358 102.639 7.16C102.456 6.962 102.181 6.863 101.814 6.863C101.528 6.863 101.275 6.94733 101.055 7.116C100.843 7.28467 100.711 7.512 100.659 7.798H99.1854C99.2881 7.116 99.5887 6.59533 100.087 6.236C100.586 5.87667 101.165 5.697 101.825 5.697C102.199 5.697 102.548 5.752 102.87 5.862C103.193 5.96467 103.468 6.11867 103.695 6.324C103.923 6.522 104.088 6.753 104.19 7.017C104.293 7.281 104.355 7.545 104.377 7.809C104.407 8.073 104.421 8.39933 104.421 8.788V12H102.936V11.164C102.782 11.4353 102.595 11.6407 102.375 11.78C102.031 12.0073 101.565 12.121 100.978 12.121ZM101.341 10.955C101.635 10.955 101.899 10.8963 102.133 10.779C102.441 10.625 102.654 10.4197 102.771 10.163C102.889 9.90633 102.955 9.558 102.969 9.118L101.495 9.415C101.099 9.48833 100.813 9.60567 100.637 9.767C100.505 9.899 100.439 10.0603 100.439 10.251C100.439 10.4783 100.52 10.6543 100.681 10.779C100.85 10.8963 101.07 10.955 101.341 10.955ZM105.706 12V3.607H107.191V6.61C107.433 6.27267 107.686 6.038 107.95 5.906C108.214 5.76667 108.519 5.697 108.863 5.697C109.831 5.697 110.473 6.04167 110.788 6.731C110.906 6.973 110.979 7.21867 111.008 7.468C111.038 7.71733 111.052 8.04367 111.052 8.447V12H109.567V8.425C109.567 8.10967 109.542 7.85667 109.49 7.666C109.446 7.468 109.373 7.31033 109.27 7.193C109.094 7.00967 108.834 6.918 108.489 6.918C108.064 6.918 107.749 7.04267 107.543 7.292C107.419 7.43867 107.327 7.633 107.268 7.875C107.217 8.117 107.191 8.44333 107.191 8.854V12H105.706ZM115.376 12V3.607H117.818C119.233 3.607 120.319 3.97 121.074 4.696C121.829 5.422 122.207 6.45967 122.207 7.809C122.207 9.151 121.826 10.185 121.063 10.911C120.308 11.637 119.226 12 117.818 12H115.376ZM117.796 10.581C118.691 10.581 119.384 10.3683 119.875 9.943C120.374 9.51033 120.623 8.799 120.623 7.809C120.623 6.87033 120.374 6.17367 119.875 5.719C119.376 5.257 118.687 5.026 117.807 5.026H116.96V10.581H117.796ZM126.195 12.121C125.572 12.121 125.022 11.9853 124.545 11.714C124.068 11.4427 123.698 11.0687 123.434 10.592C123.177 10.108 123.049 9.56167 123.049 8.953C123.049 8.38833 123.163 7.86033 123.39 7.369C123.625 6.87033 123.973 6.467 124.435 6.159C124.904 5.851 125.476 5.697 126.151 5.697C126.708 5.697 127.222 5.81433 127.691 6.049C128.16 6.27633 128.538 6.632 128.824 7.116C129.11 7.59267 129.253 8.18667 129.253 8.898V9.217H124.589C124.611 9.47367 124.688 9.71567 124.82 9.943C124.967 10.229 125.161 10.4527 125.403 10.614C125.652 10.768 125.935 10.845 126.25 10.845C126.587 10.845 126.877 10.7607 127.119 10.592C127.361 10.416 127.533 10.1923 127.636 9.921H129.154C128.956 10.5737 128.608 11.1053 128.109 11.516C127.61 11.9193 126.972 12.121 126.195 12.121ZM127.735 8.106C127.706 7.87133 127.629 7.68067 127.504 7.534C127.365 7.32133 127.181 7.16 126.954 7.05C126.727 6.93267 126.474 6.874 126.195 6.874C125.916 6.874 125.663 6.929 125.436 7.039C125.216 7.149 125.036 7.314 124.897 7.534C124.765 7.69533 124.684 7.886 124.655 8.106H127.735ZM130.338 12V5.829H131.823V6.61C132.058 6.28 132.311 6.04533 132.582 5.906C132.853 5.76667 133.161 5.697 133.506 5.697C134.459 5.697 135.101 6.04167 135.431 6.731C135.541 6.973 135.611 7.21867 135.64 7.468C135.669 7.71733 135.684 8.04367 135.684 8.447V12H134.21V8.425C134.21 7.831 134.107 7.42033 133.902 7.193C133.726 7.00967 133.466 6.918 133.121 6.918C132.703 6.918 132.391 7.04267 132.186 7.292C132.061 7.43867 131.97 7.63667 131.911 7.886C131.852 8.128 131.823 8.45067 131.823 8.854V12H130.338ZM138.483 12H136.998V5.829H138.483V12ZM137.746 5.147C137.489 5.147 137.273 5.07 137.097 4.916C136.921 4.762 136.833 4.55667 136.833 4.3C136.833 4.058 136.921 3.85633 137.097 3.695C137.273 3.53367 137.489 3.453 137.746 3.453C137.995 3.453 138.208 3.53367 138.384 3.695C138.567 3.85633 138.659 4.058 138.659 4.3C138.659 4.54933 138.571 4.75467 138.395 4.916C138.219 5.07 138.003 5.147 137.746 5.147ZM142.507 12.121C141.744 12.121 141.084 11.9377 140.527 11.571C139.97 11.2043 139.643 10.6543 139.548 9.921H141.011C141.106 10.251 141.282 10.5077 141.539 10.691C141.796 10.867 142.115 10.955 142.496 10.955C142.819 10.955 143.079 10.8927 143.277 10.768C143.482 10.6433 143.585 10.4673 143.585 10.24C143.585 9.99067 143.464 9.811 143.222 9.701C142.987 9.591 142.621 9.48833 142.122 9.393C141.645 9.29767 141.249 9.195 140.934 9.085C140.619 8.975 140.351 8.799 140.131 8.557C139.911 8.30767 139.801 7.97033 139.801 7.545C139.801 6.93633 140.025 6.478 140.472 6.17C140.927 5.85467 141.499 5.697 142.188 5.697C142.914 5.697 143.515 5.88033 143.992 6.247C144.476 6.61367 144.773 7.13067 144.883 7.798H143.486C143.405 7.47533 143.248 7.24067 143.013 7.094C142.778 6.94 142.5 6.863 142.177 6.863C141.884 6.863 141.649 6.92167 141.473 7.039C141.304 7.149 141.22 7.29933 141.22 7.49C141.22 7.71733 141.334 7.87867 141.561 7.974C141.788 8.06933 142.148 8.16467 142.639 8.26C143.145 8.35533 143.556 8.458 143.871 8.568C144.194 8.67067 144.469 8.84667 144.696 9.096C144.931 9.34533 145.048 9.69 145.048 10.13C145.048 10.7387 144.821 11.2227 144.366 11.582C143.919 11.9413 143.299 12.121 142.507 12.121ZM150.182 12H148.521L151.48 3.607H153.218L156.177 12H154.516L153.944 10.273H150.743L150.182 12ZM152.349 5.334L151.194 8.887H153.504L152.349 5.334ZM158.333 12C157.864 12 157.508 11.8937 157.266 11.681C157.024 11.461 156.903 11.1163 156.903 10.647V3.607H158.388V10.207C158.388 10.4123 158.425 10.559 158.498 10.647C158.579 10.7277 158.711 10.768 158.894 10.768H159.29V12H158.333ZM162.909 12H161.501L159.62 5.829H161.204L162.26 9.833L163.437 5.829H164.724L165.901 9.811L166.99 5.829H168.563L166.649 12H165.252L164.097 7.842L162.909 12ZM171.189 12.121C170.588 12.121 170.1 11.9633 169.726 11.648C169.352 11.3253 169.165 10.878 169.165 10.306C169.165 9.69 169.4 9.22067 169.869 8.898C170.207 8.66333 170.687 8.48733 171.31 8.37L173.147 8.029C173.133 7.64767 173.034 7.358 172.85 7.16C172.667 6.962 172.392 6.863 172.025 6.863C171.739 6.863 171.486 6.94733 171.266 7.116C171.054 7.28467 170.922 7.512 170.87 7.798H169.396C169.499 7.116 169.8 6.59533 170.298 6.236C170.797 5.87667 171.376 5.697 172.036 5.697C172.41 5.697 172.759 5.752 173.081 5.862C173.404 5.96467 173.679 6.11867 173.906 6.324C174.134 6.522 174.299 6.753 174.401 7.017C174.504 7.281 174.566 7.545 174.588 7.809C174.618 8.073 174.632 8.39933 174.632 8.788V12H173.147V11.164C172.993 11.4353 172.806 11.6407 172.586 11.78C172.242 12.0073 171.776 12.121 171.189 12.121ZM171.552 10.955C171.846 10.955 172.11 10.8963 172.344 10.779C172.652 10.625 172.865 10.4197 172.982 10.163C173.1 9.90633 173.166 9.558 173.18 9.118L171.706 9.415C171.31 9.48833 171.024 9.60567 170.848 9.767C170.716 9.899 170.65 10.0603 170.65 10.251C170.65 10.4783 170.731 10.6543 170.892 10.779C171.061 10.8963 171.281 10.955 171.552 10.955ZM175.906 12V5.829H177.391V6.61C177.626 6.28 177.879 6.04533 178.15 5.906C178.422 5.76667 178.73 5.697 179.074 5.697C180.028 5.697 180.669 6.04167 180.999 6.731C181.109 6.973 181.179 7.21867 181.208 7.468C181.238 7.71733 181.252 8.04367 181.252 8.447V12H179.778V8.425C179.778 7.831 179.676 7.42033 179.47 7.193C179.294 7.00967 179.034 6.918 178.689 6.918C178.271 6.918 177.96 7.04267 177.754 7.292C177.63 7.43867 177.538 7.63667 177.479 7.886C177.421 8.128 177.391 8.45067 177.391 8.854V12H175.906ZM186.643 13.21C185.829 11.7287 185.422 9.92833 185.422 7.809C185.422 5.68233 185.829 3.882 186.643 2.408H187.963C187.508 3.2 187.171 4.03233 186.951 4.905C186.738 5.77033 186.632 6.73833 186.632 7.809C186.632 8.87233 186.738 9.844 186.951 10.724C187.164 11.5967 187.497 12.4253 187.952 13.21H186.643ZM188.874 12V3.607H192.196C193.223 3.607 193.963 3.83433 194.418 4.289C194.763 4.63367 194.935 5.10667 194.935 5.708C194.935 6.192 194.825 6.60267 194.605 6.94C194.392 7.27 194.088 7.48633 193.692 7.589C194.227 7.677 194.638 7.89333 194.924 8.238C195.217 8.57533 195.364 9.01533 195.364 9.558C195.364 9.93933 195.294 10.284 195.155 10.592C195.023 10.9 194.843 11.1493 194.616 11.34C194.293 11.5967 193.923 11.7727 193.505 11.868C193.094 11.956 192.706 12 192.339 12H188.874ZM192.097 7.094C192.5 7.094 192.808 7.006 193.021 6.83C193.234 6.64667 193.34 6.38633 193.34 6.049C193.34 5.719 193.241 5.477 193.043 5.323C192.926 5.22033 192.768 5.147 192.57 5.103C192.379 5.05167 192.137 5.026 191.844 5.026H190.458V7.094H192.097ZM192.141 10.581C192.42 10.581 192.669 10.559 192.889 10.515C193.116 10.471 193.307 10.383 193.461 10.251C193.666 10.0823 193.769 9.811 193.769 9.437C193.769 9.00433 193.637 8.722 193.373 8.59C193.109 8.45067 192.757 8.381 192.317 8.381H190.458V10.581H192.141ZM196.478 12V5.829H197.963V6.566C198.19 6.25067 198.443 6.027 198.722 5.895C199.008 5.763 199.341 5.697 199.723 5.697H199.899V7.127H199.558C199.088 7.127 198.722 7.25167 198.458 7.501C198.289 7.66967 198.164 7.886 198.084 8.15C198.003 8.40667 197.963 8.73667 197.963 9.14V12H196.478ZM203.582 12.121C202.958 12.121 202.408 11.9853 201.932 11.714C201.455 11.4427 201.085 11.0687 200.821 10.592C200.564 10.108 200.436 9.56167 200.436 8.953C200.436 8.38833 200.549 7.86033 200.777 7.369C201.011 6.87033 201.36 6.467 201.822 6.159C202.291 5.851 202.863 5.697 203.538 5.697C204.095 5.697 204.608 5.81433 205.078 6.049C205.547 6.27633 205.925 6.632 206.211 7.116C206.497 7.59267 206.64 8.18667 206.64 8.898V9.217H201.976C201.998 9.47367 202.075 9.71567 202.207 9.943C202.353 10.229 202.548 10.4527 202.79 10.614C203.039 10.768 203.321 10.845 203.637 10.845C203.974 10.845 204.264 10.7607 204.506 10.592C204.748 10.416 204.92 10.1923 205.023 9.921H206.541C206.343 10.5737 205.994 11.1053 205.496 11.516C204.997 11.9193 204.359 12.121 203.582 12.121ZM205.122 8.106C205.092 7.87133 205.015 7.68067 204.891 7.534C204.751 7.32133 204.568 7.16 204.341 7.05C204.113 6.93267 203.86 6.874 203.582 6.874C203.303 6.874 203.05 6.929 202.823 7.039C202.603 7.149 202.423 7.314 202.284 7.534C202.152 7.69533 202.071 7.886 202.042 8.106H205.122ZM210.97 12.121C210.588 12.121 210.262 12.055 209.991 11.923C209.719 11.791 209.463 11.5563 209.221 11.219V12H207.736V3.607H209.221V6.61C209.455 6.27267 209.708 6.038 209.98 5.906C210.258 5.76667 210.588 5.697 210.97 5.697C211.505 5.697 211.978 5.83267 212.389 6.104C212.799 6.37533 213.118 6.75667 213.346 7.248C213.573 7.732 213.687 8.28567 213.687 8.909C213.687 9.53233 213.573 10.0897 213.346 10.581C213.118 11.065 212.799 11.4427 212.389 11.714C211.978 11.9853 211.505 12.121 210.97 12.121ZM210.629 10.845C211.098 10.845 211.476 10.6653 211.762 10.306C212.048 9.93933 212.191 9.47367 212.191 8.909C212.191 8.34433 212.048 7.88233 211.762 7.523C211.476 7.15633 211.098 6.973 210.629 6.973C210.159 6.973 209.774 7.15267 209.474 7.512C209.18 7.87133 209.034 8.337 209.034 8.909C209.034 9.481 209.18 9.94667 209.474 10.306C209.774 10.6653 210.159 10.845 210.629 10.845ZM217.686 12.121C217.063 12.121 216.513 11.9853 216.036 11.714C215.559 11.4427 215.189 11.0687 214.925 10.592C214.668 10.108 214.54 9.56167 214.54 8.953C214.54 8.38833 214.654 7.86033 214.881 7.369C215.116 6.87033 215.464 6.467 215.926 6.159C216.395 5.851 216.967 5.697 217.642 5.697C218.199 5.697 218.713 5.81433 219.182 6.049C219.651 6.27633 220.029 6.632 220.315 7.116C220.601 7.59267 220.744 8.18667 220.744 8.898V9.217H216.08C216.102 9.47367 216.179 9.71567 216.311 9.943C216.458 10.229 216.652 10.4527 216.894 10.614C217.143 10.768 217.426 10.845 217.741 10.845C218.078 10.845 218.368 10.7607 218.61 10.592C218.852 10.416 219.024 10.1923 219.127 9.921H220.645C220.447 10.5737 220.099 11.1053 219.6 11.516C219.101 11.9193 218.463 12.121 217.686 12.121ZM219.226 8.106C219.197 7.87133 219.12 7.68067 218.995 7.534C218.856 7.32133 218.672 7.16 218.445 7.05C218.218 6.93267 217.965 6.874 217.686 6.874C217.407 6.874 217.154 6.929 216.927 7.039C216.707 7.149 216.527 7.314 216.388 7.534C216.256 7.69533 216.175 7.886 216.146 8.106H219.226ZM224.502 12.121C223.74 12.121 223.08 11.9377 222.522 11.571C221.965 11.2043 221.639 10.6543 221.543 9.921H223.006C223.102 10.251 223.278 10.5077 223.534 10.691C223.791 10.867 224.11 10.955 224.491 10.955C224.814 10.955 225.074 10.8927 225.272 10.768C225.478 10.6433 225.58 10.4673 225.58 10.24C225.58 9.99067 225.459 9.811 225.217 9.701C224.983 9.591 224.616 9.48833 224.117 9.393C223.641 9.29767 223.245 9.195 222.929 9.085C222.614 8.975 222.346 8.799 222.126 8.557C221.906 8.30767 221.796 7.97033 221.796 7.545C221.796 6.93633 222.02 6.478 222.467 6.17C222.922 5.85467 223.494 5.697 224.183 5.697C224.909 5.697 225.511 5.88033 225.987 6.247C226.471 6.61367 226.768 7.13067 226.878 7.798H225.481C225.401 7.47533 225.243 7.24067 225.008 7.094C224.774 6.94 224.495 6.863 224.172 6.863C223.879 6.863 223.644 6.92167 223.468 7.039C223.3 7.149 223.215 7.29933 223.215 7.49C223.215 7.71733 223.329 7.87867 223.556 7.974C223.784 8.06933 224.143 8.16467 224.634 8.26C225.14 8.35533 225.551 8.458 225.866 8.568C226.189 8.67067 226.464 8.84667 226.691 9.096C226.926 9.34533 227.043 9.69 227.043 10.13C227.043 10.7387 226.816 11.2227 226.361 11.582C225.914 11.9413 225.294 12.121 224.502 12.121ZM227.489 13.21C227.944 12.4253 228.278 11.5967 228.49 10.724C228.703 9.844 228.809 8.87233 228.809 7.809C228.809 6.73833 228.699 5.77033 228.479 4.905C228.267 4.03233 227.933 3.2 227.478 2.408H228.798C229.612 3.882 230.019 5.68233 230.019 7.809C230.019 9.92833 229.612 11.7287 228.798 13.21H227.489Z" fill="#2E3137"/>
<path d="M241.013 10.597C240.935 10.5974 240.857 10.582 240.784 10.5519C240.712 10.5218 240.646 10.4775 240.591 10.4216L236.604 6.43535C236.525 6.31904 236.489 6.17838 236.503 6.03819C236.517 5.89801 236.58 5.76729 236.681 5.66911C236.782 5.57092 236.915 5.51157 237.055 5.50152C237.196 5.49148 237.335 5.53138 237.449 5.61419L241.013 9.15397L244.577 5.61419C244.689 5.54133 244.823 5.5083 244.956 5.52041C245.09 5.53252 245.215 5.58906 245.312 5.68096C245.41 5.77287 245.474 5.89482 245.493 6.02727C245.513 6.15973 245.488 6.29501 245.422 6.41143L241.436 10.3977C241.382 10.4579 241.318 10.5067 241.245 10.5409C241.172 10.5752 241.093 10.5943 241.013 10.597Z" fill="#2E3137"/>
</svg>
