<svg width="24" height="24" viewBox="0 0 24 24" fill="none" xmlns="http://www.w3.org/2000/svg">
<path d="M8.00003 12L11 15L17 8.99999M21.25 3.77999C21.25 3.51477 21.1447 3.26042 20.9571 3.07288C20.7696 2.88534 20.5152 2.77999 20.25 2.77999H17.15C16.1742 2.74629 15.2034 2.93494 14.3112 3.33168C13.419 3.72841 12.6287 4.32283 12 5.06999C11.3743 4.31736 10.5853 3.71724 9.69295 3.31524C8.80058 2.91324 7.82831 2.71992 6.85003 2.74999H3.78003C3.51481 2.74999 3.26046 2.85534 3.07292 3.04288C2.88539 3.23042 2.78003 3.48477 2.78003 3.74999V20.22C2.78003 20.4852 2.88539 20.7396 3.07292 20.9271C3.26046 21.1146 3.51481 21.22 3.78003 21.22H14.06C15.0042 21.22 15.9392 21.034 16.8115 20.6727C17.6839 20.3113 18.4765 19.7817 19.1441 19.1141C19.8118 18.4464 20.3414 17.6538 20.7027 16.7815C21.0641 15.9091 21.25 14.9742 21.25 14.03V3.77999Z" stroke="#2E3137" stroke-width="1.5" stroke-linecap="round" stroke-linejoin="round"/>
</svg>
